<?xml version="1.0" encoding="utf-8"?>
<!-- Generator: Adobe Illustrator 19.0.0, SVG Export Plug-In . SVG Version: 6.00 Build 0)  -->
<svg version="1.1" id="Capa_1" xmlns="http://www.w3.org/2000/svg" xmlns:xlink="http://www.w3.org/1999/xlink" x="0px" y="0px"
	 viewBox="-457 341 96 87" style="enable-background:new -457 341 96 87;" xml:space="preserve">
<style type="text/css">
	.st0{fill:none;}
	.st1{fill:#46AA6C;}
	.st2{fill:#FFFFFF;}
</style>
<g>
	<path class="st0" d="M-391.2,527.1l-28.2-16.3c-1.4-0.8-3.2,0.3-3.2,1.9v32.6c0,1.7,1.8,2.7,3.2,1.9l28.2-16.3
		C-389.7,530-389.7,528-391.2,527.1z"/>
</g>
<g>
	<g>
		<path class="st1" d="M-409,348.2c-20,0-36.3,16.2-36.3,36.3s16.2,36.3,36.3,36.3s36.3-16.2,36.3-36.3S-389,348.2-409,348.2z"/>
	</g>
	<path class="st2" d="M-391.7,386.2l-24.7,14.3c-1.2,0.7-2.8-0.2-2.8-1.7v-28.6c0-1.4,1.6-2.4,2.8-1.7l24.7,14.3
		C-390.4,383.6-390.4,385.4-391.7,386.2z"/>
</g>
</svg>
